<svg id="Layer_1" data-name="Layer 1" xmlns="http://www.w3.org/2000/svg" xmlns:xlink="http://www.w3.org/1999/xlink" viewBox="0 0 247.72 42.48"><defs><style>.cls-1{fill:none;}.cls-2,.cls-3{fill:#57e8ba;}.cls-3{font-size:0.1px;font-family:Roboto-Regular, Roboto;}.cls-4{clip-path:url(#clip-path);}.cls-5{isolation:isolate;}.cls-6{clip-path:url(#clip-path-3);}.cls-7{font-size:24.58px;font-family:ArialMT, Arial;}.cls-10,.cls-7{fill:#fff;}.cls-8{letter-spacing:-0.07em;}.cls-9{clip-path:url(#clip-path-4);}.cls-10{font-size:13.65px;font-family:Arial-BoldMT, Arial;font-weight:700;}.cls-11{letter-spacing:-0.07em;}.cls-12{fill:#fde500;}.cls-13{fill:#ec2426;}.cls-14{fill:#273876;}.cls-15{fill:#00a453;}.cls-16{fill:#35bca7;}.cls-17{fill:#1aa470;}</style><clipPath id="clip-path" transform="translate(4 0.2)"><rect class="cls-1" x="4" width="248.82" height="42.81"/></clipPath><clipPath id="clip-path-3" transform="translate(4 0.2)"><rect class="cls-1" x="49.84" y="-0.2" width="193.88" height="29.07"/></clipPath><clipPath id="clip-path-4" transform="translate(4 0.2)"><rect class="cls-1" x="105.81" y="25.43" width="133.42" height="16.85"/></clipPath></defs><polygon class="cls-2" points="4 1.2 4 0.7 5 0.2 5 0.7 4 1.2"/><polygon class="cls-2" points="5 1.2 5 0.7 6 0.21 6 0.71 5 1.2"/><polygon class="cls-2" points="6 1.21 6 0.71 7 0.21 7 0.71 6 1.21"/><text class="cls-3" transform="translate(6.92 1.2)">©</text><g class="cls-4"><g class="cls-4"><g class="cls-5"><g class="cls-6"><text class="cls-7" transform="translate(53.84 21.09) scale(1.07 1)">PB CRE<tspan class="cls-8" x="91.51" y="0">A</tspan><tspan x="106.09" y="0">TIONS</tspan></text></g></g><g class="cls-5"><g class="cls-9"><text class="cls-10" transform="translate(109.83 37.34)"><tspan class="cls-11">Y</tspan><tspan x="8.09" y="0">our Growth Partner</tspan></text></g></g><path class="cls-12" d="M55.66,30a3.59,3.59,0,1,1-3.59,3.59A3.59,3.59,0,0,1,55.66,30" transform="translate(4 0.2)"/><path class="cls-13" d="M69.32,30a3.59,3.59,0,1,1-3.59,3.59A3.59,3.59,0,0,1,69.32,30" transform="translate(4 0.2)"/><path class="cls-14" d="M83,30a3.59,3.59,0,1,1-3.59,3.59A3.59,3.59,0,0,1,83,30" transform="translate(4 0.2)"/><path class="cls-15" d="M96.62,30A3.59,3.59,0,1,1,93,33.56,3.59,3.59,0,0,1,96.62,30" transform="translate(4 0.2)"/><polygon class="cls-16" points="23.12 2.27 33.26 19.84 22.89 37.63 10.47 37.63 20.84 19.84 10.47 2.27 23.12 2.27"/><polygon class="cls-16" points="40.53 2.27 50.67 19.84 40.3 37.7 27.81 37.7 38.18 19.91 27.81 2.27 40.53 2.27"/><polygon class="cls-17" points="38.18 19.91 44.63 30.24 40.3 37.7 27.81 37.7 38.18 19.91"/><polygon class="cls-17" points="20.84 19.84 27.81 29.19 22.89 37.63 10.47 37.63 20.84 19.84"/></g></g><rect class="cls-2" y="1.2" width="2" height="2"/></svg>