<svg id="Layer_1" data-name="Layer 1" xmlns="http://www.w3.org/2000/svg" xmlns:xlink="http://www.w3.org/1999/xlink" viewBox="0 0 129.59 41.89"><defs><style>.cls-1{fill:url(#linear-gradient);}.cls-2{fill:url(#linear-gradient-2);}.cls-3{font-size:12.96px;font-family:Roboto-Regular, Roboto;}.cls-4{letter-spacing:-0.01em;}.cls-5{letter-spacing:0em;}.cls-6{font-size:27.21px;font-family:Roboto-Black, Roboto;font-weight:800;}.cls-7{font-size:2.6px;font-family:MyriadPro-Regular, Myriad Pro;}</style><linearGradient id="linear-gradient" x1="42.12" y1="4.54" x2="8.99" y2="37.66" gradientUnits="userSpaceOnUse"><stop offset="0" stop-color="#96c541"/><stop offset="0.4" stop-color="#94c341"/><stop offset="0.6" stop-color="#8cbd41"/><stop offset="0.76" stop-color="#7fb341"/><stop offset="0.89" stop-color="#6da541"/><stop offset="1" stop-color="#569341"/></linearGradient><linearGradient id="linear-gradient-2" x1="41.62" y1="7.64" x2="8.49" y2="40.76" xlink:href="#linear-gradient"/></defs><path class="cls-1" d="M24.87,2.32a17.68,17.68,0,0,0-4,.45c-14.4,3.35-14.91,17-14.91,17V40.49H19.44L19.32,27.2,14,32.54v2.84H11.26V19.81c1-11.47,11.81-12.38,11.81-12.38H39.32V18a24.18,24.18,0,0,1-3.18,12h0V10.5L31,15.61V39.7a17.66,17.66,0,0,0,10.69-8,21.13,21.13,0,0,0,3.06-11.07V2.32Z" transform="translate(-5.92 -2.32)"/><polygon class="cls-2" points="16.59 38.18 21.93 38.18 21.93 16.48 16.59 22.15 16.59 38.18"/><text class="cls-3" transform="translate(41.52 12.26)">G<tspan class="cls-4" x="8.83" y="0">r</tspan><tspan class="cls-5" x="13.08" y="0">owth</tspan></text><text class="cls-6" transform="translate(40.88 34.51)">Licious</text><text class="cls-7" transform="translate(127.84 20.14)">©</text></svg>