<svg id="Layer_1" data-name="Layer 1" xmlns="http://www.w3.org/2000/svg" viewBox="0 0 233.43 40.52"><defs><style>.cls-1{fill:#fff;}.cls-2{isolation:isolate;font-size:13.65px;font-family:Arial-BoldMT, Arial;}.cls-10,.cls-2{fill:#231f20;font-weight:700;}.cls-3{letter-spacing:-0.07em;}.cls-4{fill:#fde500;}.cls-5{fill:#ec2426;}.cls-6{fill:#273876;}.cls-7{fill:#00a453;}.cls-8{fill:#35bca7;}.cls-9{fill:#1aa470;}.cls-10{font-size:24px;font-family:Roboto-Bold, Roboto;}.cls-11{letter-spacing:-0.01em;}</style></defs><g id="mask-2"><g id="logo-mask-1"><path class="cls-1" d="M38.66,30.46l10,17.35L38.43,65.46H26.1L36.34,47.88,26.1,30.46Z" transform="translate(-8.73 -29.46)"/></g></g><g id="mask"><g id="logo-mask-0"><path class="cls-1" d="M21.25,29.46l10,17.39L21,64.46H8.73L19,46.85,8.73,29.46Z" transform="translate(-8.73 -29.46)"/></g></g><text class="cls-2" transform="translate(99.24 35.39)"><tspan class="cls-3">Y</tspan><tspan x="8.09" y="0">our Growth Partner</tspan></text><circle class="cls-4" cx="49.07" cy="31.81" r="3.59"/><circle class="cls-5" cx="62.73" cy="31.81" r="3.59"/><circle class="cls-6" cx="76.38" cy="31.81" r="3.59"/><circle class="cls-7" cx="90.03" cy="31.81" r="3.59"/><path class="cls-8" d="M21.25,29.46l10,17.39L21,64.46H8.73L19,46.85,8.73,29.46Z" transform="translate(-8.73 -29.46)"/><path class="cls-8" d="M38.66,30.46l10,17.35L38.43,65.46H26.1L36.34,47.88,26.1,30.46Z" transform="translate(-8.73 -29.46)"/><polygon class="cls-9" points="27.61 18.43 33.92 28.73 29.7 36 17.36 36 27.61 18.43"/><text class="cls-10" transform="translate(45.24 20.57) scale(1.01 1)">Ubique C<tspan class="cls-11" x="97.31" y="0">r</tspan><tspan x="105.84" y="0">eations</tspan></text><polygon class="cls-9" points="10.26 17.39 16.49 27.81 12.29 35 0 35 10.26 17.39"/></svg>