<svg id="Layer_1" data-name="Layer 1" xmlns="http://www.w3.org/2000/svg" xmlns:xlink="http://www.w3.org/1999/xlink" viewBox="0 0 248.82 42.81"><defs><style>.cls-1{fill:#fff;}.cls-2{font-size:24.58px;font-family:Gotham-Medium, Gotham;font-weight:500;letter-spacing:0em;}.cls-2,.cls-5{fill:#231f20;}.cls-3{letter-spacing:-0.09em;}.cls-4{letter-spacing:0em;}.cls-5{font-size:13.65px;font-family:Gotham-Bold, Gotham;font-weight:700;}.cls-6{fill:#fde500;}.cls-7{fill:#ec2426;}.cls-8{fill:#273876;}.cls-9{fill:#00a453;}.cls-10{mask:url(#mask);}.cls-11{fill:#35bca7;}.cls-12{fill:#1aa470;}.cls-13{mask:url(#mask-2);}</style><mask id="mask" x="0" y="2.08" width="25.26" height="40.43" maskUnits="userSpaceOnUse"><g transform="translate(0 -27.84)"><g id="logo-mask-0"><path class="cls-1" d="M15.12,29.91,25.26,47.48,14.89,65.27H2.47L12.84,47.48,2.47,29.91Z"/></g></g></mask><mask id="mask-2" x="17.39" y="2.08" width="25.29" height="40.73" maskUnits="userSpaceOnUse"><g transform="translate(0 -27.84)"><g id="logo-mask-1"><path class="cls-1" d="M32.53,29.91,42.67,47.48,32.3,65.34H19.81L30.18,47.55,19.81,29.91Z"/></g></g></mask></defs><text class="cls-2" transform="translate(45.84 20.89) scale(1.07 1)">PB CREATIONS<tspan class="cls-3" x="93.32" y="0"></tspan><tspan class="cls-4" x="110.43" y="0"></tspan></text><text class="cls-5" transform="translate(101.83 37.14)">Your Growth Partner</text><circle class="cls-6" cx="51.66" cy="33.56" r="3.59"/><circle class="cls-7" cx="65.32" cy="33.56" r="3.59"/><circle class="cls-8" cx="78.97" cy="33.56" r="3.59"/><circle class="cls-9" cx="92.62" cy="33.56" r="3.59"/><g class="cls-10"><path class="cls-11" d="M15.12,29.91,25.26,47.48,14.89,65.27H2.47L12.84,47.48,2.47,29.91Z" transform="translate(0 -27.84)"/><path class="cls-12" d="M11.63,45.43l8.48,14c-.53,7.27-.91,10.9-1.21,10.9s-6-.68-17.11-2c-1.44-4.17-2-6.21-1.74-6.21S4.14,56.64,11.63,45.43Z" transform="translate(0 -27.84)"/></g><g class="cls-13"><path class="cls-11" d="M32.53,29.91,42.67,47.48,32.3,65.34H19.81L30.18,47.55,19.81,29.91Z" transform="translate(0 -27.84)"/><path class="cls-12" d="M29,45.66l8.48,14.08c-.53,7.27-.91,10.9-1.21,10.9s-6-.68-17.18-2c-1.37-4.17-2-6.21-1.67-6.21S21.55,56.86,29,45.66Z" transform="translate(0 -27.84)"/></g></svg>