<svg id="Layer_1" data-name="Layer 1" xmlns="http://www.w3.org/2000/svg" viewBox="0 0 153.13 34.77"><defs><style>.cls-1{fill:#720075;}.cls-2{fill:#bc0000;}.cls-3{font-size:26.67px;fill:#fff;font-family:Roboto-Bold, Roboto;font-weight:700;}.cls-4{font-size:5.83px;font-family:Roboto-Regular, Roboto;}.cls-5{letter-spacing:-0.03em;}.cls-6{letter-spacing:-0.01em;}.cls-7{letter-spacing:-0.01em;}.cls-8{letter-spacing:0.02em;}</style></defs><path class="cls-1" d="M8,0H81.25a0,0,0,0,1,0,0V26.67a0,0,0,0,1,0,0H8a8,8,0,0,1-8-8V8A8,8,0,0,1,8,0Z"/><path class="cls-2" d="M199.86,32.85H128.6V6.18h62.61a8.65,8.65,0,0,1,8.65,8.65Z" transform="translate(-47.35 -6.18)"/><text class="cls-3" transform="translate(2.2 22.94)">SOCIO</text><text class="cls-3" transform="translate(82.62 22.94)">EDGE</text><text x="-47.35" y="-6.18"/><text class="cls-4" transform="translate(100.56 33.18)"><tspan class="cls-5">Y</tspan><tspan x="3.32" y="0">our G</tspan><tspan class="cls-6" x="17.25" y="0">r</tspan><tspan x="19.17" y="0">owth </tspan><tspan class="cls-7" x="33.44" y="0">P</tspan><tspan x="37.09" y="0">a</tspan><tspan class="cls-8" x="40.27" y="0">r</tspan><tspan x="42.38" y="0">tner</tspan></text></svg>