<?xml version="1.0" encoding="utf-8"?>
<!-- Generator: Adobe Illustrator 24.2.0, SVG Export Plug-In . SVG Version: 6.00 Build 0)  -->
<svg version="1.1" id="Layer_1" xmlns="http://www.w3.org/2000/svg" xmlns:xlink="http://www.w3.org/1999/xlink" x="0px" y="0px"
	 viewBox="0 0 248.8 42.8" style="enable-background:new 0 0 248.8 42.8;" xml:space="preserve">
<style type="text/css">
	.st0{display:none;}
	.st1{display:inline;fill:#720075;}
	.st2{display:inline;}
	.st3{fill:url(#SVGID_1_);}
	.st4{fill:#BC0000;}
	.st5{display:inline;fill:#FFFFFF;}
	.st6{font-family:'Roboto-Bold';}
	.st7{font-size:25.0645px;}
	.st8{display:inline;fill:none;}
	.st9{font-family:'Roboto-Regular';}
	.st10{font-size:5.4829px;}
	.st11{font-size:5.6074px;}
</style>
<g class="st0">
	<path class="st1" d="M129,32.1H60.1c-4.2,0-7.5-3.4-7.5-7.5v-10c0-4.2,3.4-7.5,7.5-7.5H129V32.1z"/>
	<g class="st2">
		<linearGradient id="SVGID_1_" gradientUnits="userSpaceOnUse" x1="51.4238" y1="19.6003" x2="197.1111" y2="19.6003">
			<stop  offset="2.396668e-07" style="stop-color:#BC0000"/>
			<stop  offset="1" style="stop-color:#720075"/>
		</linearGradient>
		<path class="st3" d="M187.5,7.1c4.7,0,8.4,3.8,8.4,8.4v16.6h-133c-5.7,0-10.3-4.6-10.3-10.3v-4.4c0-5.7,4.6-10.3,10.3-10.3H187.5
			 M187.5,5.9H62.9c-6.3,0-11.5,5.2-11.5,11.5v4.4c0,6.3,5.2,11.5,11.5,11.5h133h1.2v-1.2V15.5C197.1,10.2,192.8,5.9,187.5,5.9
			L187.5,5.9z"/>
	</g>
	<g class="st2">
		<path class="st4" d="M195.9,32.1h-67V7.1h58.8c4.5,0,8.1,3.6,8.1,8.1V32.1z"/>
	</g>
	<text transform="matrix(1 0 0 1 54.6662 28.6296)" class="st5 st6 st7">SOCIO</text>
	<text transform="matrix(1 0 0 1 130.2512 28.6296)" class="st5 st6 st7">EDGE</text>
	<rect x="123.6" y="18.5" class="st8" width="5.2" height="0"/>
	<text transform="matrix(1 0 0 1 130.842 38.2566)" class="st2 st9 st10">Lorem ipsum Lorem ipsum</text>
</g>
<g class="st0">
	<g class="st2">
		
			<image style="overflow:visible;opacity:0.4;" width="223" height="58" xlink:href="28CDC962.png"  transform="matrix(1 0 0 1 15 4.81)">
		</image>
		<g>
			<g>
				<path d="M34,10.7c-0.8,0-1.6,0.1-2.2,0.3c-0.6,0.2-1.2,0.5-1.6,0.8c-0.4,0.4-0.8,0.8-1,1.3c-0.2,0.5-0.3,1.1-0.3,1.7
					c0,0.4,0.1,0.9,0.2,1.3c0.1,0.4,0.4,0.8,0.8,1.3c0.4,0.4,0.9,0.9,1.7,1.4c0.7,0.5,1.7,1,2.9,1.5c1.4,0.7,2.6,1.3,3.6,1.8
					c1,0.6,1.8,1.2,2.4,1.8c0.6,0.6,1.1,1.4,1.3,2.2c0.3,0.8,0.4,1.8,0.4,2.9c0,0.8-0.2,1.7-0.5,2.5c-0.3,0.8-0.8,1.6-1.5,2.3
					c-0.7,0.7-1.5,1.2-2.6,1.6c-1,0.4-2.2,0.6-3.6,0.6c-1.5,0-2.8-0.1-3.9-0.4c-1.1-0.3-1.9-0.7-2.5-1.1c-0.6-0.5-1.1-1-1.4-1.5
					c-0.3-0.6-0.4-1.2-0.4-1.7c0-0.4,0.1-0.7,0.2-1.1s0.3-0.6,0.5-0.9c0.2-0.3,0.5-0.4,0.8-0.6c0.3-0.1,0.7-0.2,1.1-0.2
					c0.4,0,0.7,0.1,1.1,0.2c0.3,0.1,0.6,0.3,0.8,0.5c0.2,0.2,0.4,0.5,0.5,0.8c0.1,0.3,0.2,0.6,0.2,1c0,0.8-0.2,1.5-0.7,1.9
					c-0.5,0.4-1.1,0.6-1.9,0.6v0.1c0.1,0.1,0.2,0.2,0.5,0.4c0.2,0.2,0.6,0.3,1,0.5c0.4,0.2,1,0.3,1.6,0.4c0.6,0.1,1.4,0.2,2.2,0.2
					c0.7,0,1.4-0.1,2.1-0.3c0.7-0.2,1.3-0.5,1.9-0.8c0.5-0.4,1-0.8,1.3-1.3c0.3-0.5,0.5-1.1,0.5-1.7c0-0.5-0.1-1-0.3-1.5
					c-0.2-0.5-0.6-0.9-1.1-1.4c-0.5-0.5-1.3-1-2.3-1.6c-1-0.6-2.2-1.2-3.8-1.9c-1.2-0.5-2.1-1-2.8-1.6c-0.7-0.6-1.3-1.2-1.7-1.9
					c-0.4-0.7-0.7-1.3-0.9-2.1c-0.2-0.7-0.2-1.5-0.2-2.2c0-1,0.2-1.9,0.5-2.7c0.3-0.9,0.9-1.6,1.5-2.2c0.7-0.6,1.5-1.1,2.5-1.5
					c1-0.4,2.1-0.6,3.3-0.6c1.2,0,2.2,0.1,3.1,0.4c0.9,0.3,1.6,0.7,2.2,1.1c0.6,0.5,1,1,1.3,1.6s0.4,1.3,0.4,1.9
					c0,0.3-0.1,0.7-0.2,1c-0.1,0.3-0.3,0.6-0.5,0.8c-0.2,0.2-0.5,0.4-0.8,0.6c-0.3,0.1-0.7,0.2-1.1,0.2c-0.4,0-0.7-0.1-1-0.2
					c-0.3-0.1-0.6-0.3-0.8-0.5c-0.2-0.2-0.4-0.5-0.5-0.8c-0.1-0.3-0.2-0.6-0.2-1c0-0.4,0.1-0.8,0.2-1.1c0.1-0.3,0.3-0.6,0.6-0.8
					c0.2-0.2,0.5-0.4,0.8-0.5c0.3-0.1,0.7-0.2,1-0.2v-0.1c-0.1-0.1-0.2-0.2-0.4-0.4c-0.2-0.2-0.5-0.4-0.9-0.5
					C37,11.2,36.5,11,36,10.9C35.4,10.8,34.8,10.7,34,10.7z"/>
				<path d="M45.2,22.9c0-2.4,0.4-4.6,1.3-6.6c0.9-2,2.1-3.6,3.8-4.8c1.7-1.2,3.6-1.8,5.8-1.8c3.3,0,5.9,1.2,8,3.5
					c2,2.3,3,5.4,3,9.1c0,1.4-0.1,2.7-0.4,4c-0.3,1.3-0.7,2.5-1.3,3.7c-0.6,1.2-1.3,2.2-2.1,3c-0.8,0.9-1.9,1.6-3.1,2.1
					s-2.5,0.8-4,0.8c-3.4,0-6.1-1.2-8.1-3.6C46.2,30,45.2,26.8,45.2,22.9z M49.9,22.5c0,2.3,0.2,4.4,0.7,6.2
					c0.5,1.8,1.2,3.3,2.1,4.5c1,1.1,2.1,1.7,3.4,1.7c2,0,3.5-1.1,4.6-3.4c1.1-2.3,1.7-5.3,1.7-9.1c0-3.9-0.5-6.9-1.6-8.8
					c-1.1-2-2.6-3-4.5-3c-0.7,0-1.3,0.1-1.9,0.4c-0.6,0.3-1.2,0.7-1.7,1.3c-0.5,0.6-1,1.4-1.4,2.3c-0.4,0.9-0.7,2-0.9,3.4
					C50,19.4,49.9,20.9,49.9,22.5z"/>
				<path d="M70.5,23.3c0-1.3,0.1-2.6,0.4-3.8c0.3-1.3,0.7-2.5,1.3-3.7c0.6-1.2,1.4-2.2,2.2-3.1c0.9-0.9,2-1.6,3.3-2.1
					c1.3-0.5,2.7-0.8,4.3-0.8c1.8,0,3.4,0.5,4.8,1.5c1.4,1,2.1,2.2,2.1,3.5c0,0.7-0.2,1.3-0.7,1.8c-0.4,0.5-1,0.7-1.8,0.7
					c-0.7,0-1.3-0.2-1.8-0.7c-0.5-0.4-0.7-1-0.7-1.7c0-0.7,0.2-1.2,0.6-1.7c0.4-0.5,1-0.7,1.6-0.7c0.1,0,0.2,0,0.3,0v-0.1
					c-0.2-0.3-0.6-0.7-1.4-1.1c-0.8-0.4-1.7-0.6-2.8-0.6c-2.1,0-3.9,1.1-5.2,3.3c-1.4,2.2-2,5.1-2,8.7c0,1.6,0.1,3,0.4,4.4
					c0.3,1.4,0.7,2.6,1.2,3.8c0.5,1.1,1.2,2,2.1,2.7c0.9,0.7,1.9,1,3.1,1c1.7,0,3.1-0.5,4.3-1.5c1.2-1,2.2-2.2,2.9-3.8l0.8,0.4
					c-1.7,4.1-4.5,6.2-8.4,6.2c-1.7,0-3.2-0.2-4.5-0.7c-1.3-0.5-2.4-1.1-3.2-1.9c-0.8-0.8-1.5-1.7-2-2.9c-0.5-1.1-0.9-2.3-1.1-3.4
					C70.6,25.9,70.5,24.6,70.5,23.3z"/>
				<path d="M91.7,35.3v-0.8l2.7-0.2v-23l-2.7-0.2v-0.8h9.9v0.8l-2.7,0.2v23l2.7,0.2v0.8H91.7z"/>
				<path d="M104.3,22.9c0-2.4,0.4-4.6,1.3-6.6c0.9-2,2.1-3.6,3.8-4.8c1.7-1.2,3.6-1.8,5.8-1.8c3.3,0,5.9,1.2,8,3.5
					c2,2.3,3,5.4,3,9.1c0,1.4-0.1,2.7-0.4,4c-0.3,1.3-0.7,2.5-1.3,3.7c-0.6,1.2-1.3,2.2-2.1,3c-0.8,0.9-1.9,1.6-3.1,2.1
					c-1.2,0.5-2.5,0.8-4,0.8c-3.4,0-6.1-1.2-8.1-3.6C105.2,30,104.3,26.8,104.3,22.9z M108.9,22.5c0,2.3,0.2,4.4,0.7,6.2
					c0.5,1.8,1.2,3.3,2.1,4.5c1,1.1,2.1,1.7,3.4,1.7c2,0,3.5-1.1,4.6-3.4c1.1-2.3,1.7-5.3,1.7-9.1c0-3.9-0.5-6.9-1.6-8.8
					c-1.1-2-2.6-3-4.5-3c-0.7,0-1.3,0.1-1.9,0.4c-0.6,0.3-1.2,0.7-1.7,1.3c-0.5,0.6-1,1.4-1.4,2.3c-0.4,0.9-0.7,2-0.9,3.4
					C109.1,19.4,108.9,20.9,108.9,22.5z"/>
				<path d="M128.8,35.3v-0.8l2.7-0.2v-23l-2.7-0.2v-0.8H146l0.2,7.1h-0.7c-0.1-0.8-0.3-1.5-0.4-2c-0.2-0.6-0.4-1.1-0.7-1.7
					c-0.3-0.6-0.6-1-1-1.3c-0.4-0.3-0.9-0.6-1.5-0.8c-0.6-0.2-1.3-0.3-2.1-0.3c-1,0-2.2,0.1-3.7,0.2v10.4c0.4,0,1,0.1,1.9,0.1
					c1.2,0,2.1-0.3,2.6-0.9c0.5-0.6,0.8-1.7,0.8-3.3h1v9.4h-1c0-1.6-0.3-2.7-0.8-3.3c-0.5-0.6-1.4-0.9-2.6-0.9c-0.9,0-1.5,0-1.9,0.1
					v11.2c1.5,0.1,3,0.2,4.4,0.2c0.7,0,1.3-0.1,1.8-0.2c0.5-0.1,1-0.3,1.4-0.6c0.4-0.3,0.7-0.5,1-0.9c0.3-0.3,0.5-0.7,0.7-1.2
					c0.2-0.5,0.4-1,0.5-1.5c0.1-0.5,0.3-1.1,0.4-1.9h0.8l-0.2,7.1H128.8z"/>
				<path d="M150,35.3v-0.8l2.7-0.2v-23l-2.7-0.2v-0.8h8.8c2.4,0,4.4,0.3,6.1,0.9c1.7,0.6,3,1.5,4,2.6c1,1.1,1.7,2.4,2.2,3.9
					c0.4,1.5,0.7,3.2,0.7,5.2c0,1.4-0.1,2.7-0.4,3.9c-0.3,1.2-0.8,2.4-1.4,3.4c-0.6,1-1.4,1.9-2.4,2.7c-1,0.7-2.1,1.3-3.5,1.7
					c-1.4,0.4-2.9,0.6-4.6,0.6H150z M157.1,34.2c0.6,0.1,1.2,0.2,1.7,0.2c1.2,0,2.2-0.2,3.2-0.6c0.9-0.4,1.7-0.9,2.3-1.6
					c0.6-0.7,1.1-1.5,1.5-2.5c0.4-1,0.7-2.1,0.9-3.2c0.2-1.2,0.3-2.4,0.3-3.8c0-1.4-0.1-2.6-0.2-3.6c-0.1-1.1-0.4-2.1-0.7-3.1
					c-0.4-1-0.8-1.8-1.4-2.5c-0.6-0.7-1.4-1.2-2.3-1.6c-1-0.4-2.1-0.6-3.4-0.6c-0.7,0-1.3,0.1-1.9,0.2V34.2z"/>
				<path d="M175.2,23.3c0-1.2,0.1-2.5,0.4-3.7c0.3-1.2,0.7-2.5,1.3-3.7c0.6-1.2,1.4-2.3,2.2-3.2c0.9-0.9,2-1.7,3.3-2.2
					c1.3-0.6,2.7-0.8,4.3-0.8c2.4,0,4.3,0.5,5.9,1.5c1.5,1,2.3,2.2,2.3,3.6c0,0.7-0.2,1.4-0.7,1.9c-0.5,0.5-1.1,0.8-1.9,0.8
					c-0.8,0-1.4-0.2-1.9-0.7c-0.5-0.5-0.7-1.1-0.7-1.8c0-0.8,0.3-1.4,0.8-1.9c0.5-0.4,1.1-0.7,1.9-0.7v-0.1c-0.3-0.3-0.8-0.6-1.6-1
					s-1.8-0.5-3-0.5c-1.6,0-3.1,0.5-4.3,1.5c-1.2,1-2.1,2.4-2.7,4.2c-0.6,1.8-0.9,3.9-0.9,6.2c0,0.8,0,1.6,0.1,2.3
					c0.1,0.7,0.2,1.5,0.3,2.4c0.2,0.8,0.3,1.6,0.6,2.3c0.2,0.7,0.6,1.4,1,2c0.4,0.6,0.9,1.2,1.4,1.7c0.5,0.5,1.2,0.8,1.9,1.1
					c0.7,0.3,1.6,0.4,2.5,0.4c1,0,2.1-0.2,3.3-0.5v-9.5l-2.6-0.2v-0.8h9.2v0.8l-2.6,0.2v9.3c-1,0.6-2.2,1-3.7,1.3
					c-1.5,0.3-3,0.5-4.5,0.5C179,35.9,175.2,31.7,175.2,23.3z"/>
				<path d="M199.4,35.3v-0.8l2.7-0.2v-23l-2.7-0.2v-0.8h17.2l0.2,7.1h-0.7c-0.1-0.8-0.3-1.5-0.4-2c-0.2-0.6-0.4-1.1-0.7-1.7
					c-0.3-0.6-0.6-1-1-1.3c-0.4-0.3-0.9-0.6-1.5-0.8c-0.6-0.2-1.3-0.3-2.1-0.3c-1,0-2.2,0.1-3.7,0.2v10.4c0.4,0,1,0.1,1.9,0.1
					c1.2,0,2.1-0.3,2.6-0.9c0.5-0.6,0.8-1.7,0.8-3.3h1v9.4h-1c0-1.6-0.3-2.7-0.8-3.3c-0.5-0.6-1.4-0.9-2.6-0.9c-0.9,0-1.5,0-1.9,0.1
					v11.2c1.5,0.1,3,0.2,4.4,0.2c0.7,0,1.3-0.1,1.8-0.2c0.5-0.1,1-0.3,1.4-0.6c0.4-0.3,0.7-0.5,1-0.9c0.3-0.3,0.5-0.7,0.7-1.2
					c0.2-0.5,0.4-1,0.5-1.5c0.1-0.5,0.3-1.1,0.4-1.9h0.8l-0.2,7.1H199.4z"/>
			</g>
		</g>
	</g>
	<text transform="matrix(1 0 0 1 218.2158 11.6926)" class="st2 st9 st11">©</text>
</g>
<g>
	<g>
		<path d="M13.4,6c-1.1,0-2,0.1-2.8,0.4C9.8,6.7,9.1,7,8.6,7.5c-0.5,0.5-1,1-1.2,1.7c-0.3,0.6-0.4,1.3-0.4,2.1
			c0,0.5,0.1,1.1,0.2,1.6c0.1,0.5,0.5,1.1,1,1.6c0.5,0.6,1.2,1.1,2.1,1.7c0.9,0.6,2.2,1.2,3.7,1.9c1.8,0.8,3.3,1.6,4.6,2.3
			c1.2,0.7,2.3,1.5,3,2.3c0.8,0.8,1.3,1.7,1.7,2.7c0.3,1,0.5,2.2,0.5,3.6c0,1.1-0.2,2.1-0.6,3.2c-0.4,1.1-1.1,2-1.9,2.9
			c-0.9,0.8-2,1.5-3.3,2c-1.3,0.5-2.8,0.8-4.6,0.8c-2,0-3.6-0.2-4.9-0.5C7.1,37.1,6,36.6,5.2,36c-0.8-0.6-1.4-1.2-1.7-2
			C3.1,33.3,3,32.6,3,31.9c0-0.5,0.1-0.9,0.2-1.4c0.1-0.4,0.4-0.8,0.7-1.1c0.3-0.3,0.6-0.6,1.1-0.8c0.4-0.2,0.9-0.3,1.4-0.3
			c0.5,0,0.9,0.1,1.3,0.3c0.4,0.2,0.7,0.4,1,0.7c0.3,0.3,0.5,0.6,0.6,1c0.2,0.4,0.2,0.8,0.2,1.3c0,1-0.3,1.8-0.9,2.4
			c-0.6,0.5-1.4,0.8-2.3,0.8v0.1c0.1,0.1,0.3,0.3,0.6,0.5c0.3,0.2,0.7,0.4,1.3,0.6c0.5,0.2,1.2,0.4,2,0.5c0.8,0.2,1.7,0.2,2.8,0.2
			c0.9,0,1.8-0.1,2.6-0.4c0.9-0.2,1.7-0.6,2.3-1c0.7-0.4,1.2-1,1.7-1.6c0.4-0.6,0.6-1.4,0.6-2.2c0-0.7-0.1-1.3-0.4-1.9
			c-0.3-0.6-0.7-1.2-1.4-1.8c-0.7-0.6-1.7-1.3-2.9-2c-1.2-0.7-2.8-1.5-4.8-2.4c-1.5-0.6-2.7-1.3-3.6-2C6.2,20.7,5.5,20,5,19.1
			c-0.5-0.8-0.9-1.7-1.1-2.6c-0.2-0.9-0.3-1.8-0.3-2.8c0-1.2,0.2-2.4,0.7-3.4c0.4-1.1,1.1-2,1.9-2.8S8,6,9.2,5.5
			c1.2-0.5,2.6-0.7,4.2-0.7c1.5,0,2.8,0.2,4,0.5c1.1,0.4,2.1,0.8,2.8,1.4c0.7,0.6,1.3,1.3,1.7,2c0.4,0.8,0.6,1.6,0.6,2.4
			c0,0.4-0.1,0.9-0.2,1.3c-0.1,0.4-0.4,0.8-0.6,1.1c-0.3,0.3-0.6,0.5-1,0.7c-0.4,0.2-0.9,0.3-1.4,0.3c-0.5,0-0.9-0.1-1.3-0.2
			c-0.4-0.2-0.7-0.4-1-0.7c-0.3-0.3-0.5-0.6-0.7-1c-0.2-0.4-0.2-0.8-0.2-1.3c0-0.5,0.1-1,0.3-1.4c0.2-0.4,0.4-0.7,0.7-1
			c0.3-0.3,0.7-0.5,1.1-0.6c0.4-0.1,0.9-0.2,1.3-0.2V8.1C19.2,8,19,7.8,18.7,7.6c-0.3-0.2-0.6-0.5-1.1-0.7c-0.5-0.2-1.1-0.4-1.8-0.6
			C15.2,6.1,14.4,6,13.4,6z"/>
		<path d="M27.6,21.5c0-3,0.5-5.8,1.6-8.3c1.1-2.5,2.7-4.5,4.8-6.1c2.1-1.5,4.6-2.3,7.3-2.3c4.2,0,7.5,1.5,10.1,4.4
			c2.5,2.9,3.8,6.8,3.8,11.6c0,1.7-0.2,3.4-0.5,5.1c-0.3,1.6-0.9,3.2-1.6,4.7c-0.7,1.5-1.6,2.8-2.7,3.9c-1.1,1.1-2.4,2-3.9,2.6
			s-3.2,1-5,1c-4.3,0-7.7-1.5-10.2-4.5S27.6,26.5,27.6,21.5z M33.6,21c0,2.9,0.3,5.5,0.9,7.9c0.6,2.3,1.5,4.2,2.7,5.7
			c1.2,1.5,2.6,2.2,4.3,2.2c2.5,0,4.4-1.4,5.8-4.3c1.4-2.9,2.1-6.7,2.1-11.5c0-5-0.7-8.7-2.1-11.2C45.9,7.3,44,6,41.5,6
			c-0.9,0-1.7,0.2-2.4,0.5c-0.8,0.4-1.5,0.9-2.2,1.7c-0.7,0.8-1.3,1.7-1.8,2.9c-0.5,1.1-0.9,2.6-1.2,4.2C33.7,17.1,33.6,19,33.6,21z
			"/>
		<path d="M59.6,22c0-1.6,0.2-3.3,0.5-4.9c0.4-1.6,0.9-3.1,1.7-4.6c0.8-1.5,1.7-2.8,2.8-3.9c1.1-1.1,2.5-2,4.2-2.7
			c1.7-0.7,3.5-1,5.5-1c2.3,0,4.3,0.6,6.1,1.9C82.1,8,83,9.5,83,11.2c0,0.9-0.3,1.6-0.8,2.2c-0.6,0.6-1.3,0.9-2.3,0.9
			c-0.9,0-1.7-0.3-2.2-0.9c-0.6-0.6-0.9-1.3-0.9-2.2c0-0.9,0.3-1.6,0.8-2.2c0.5-0.6,1.2-0.9,2-0.9c0.2,0,0.3,0,0.4,0V8.3
			c-0.2-0.4-0.8-0.9-1.8-1.4c-1-0.5-2.2-0.8-3.5-0.8c-2.7,0-4.9,1.4-6.6,4.2c-1.7,2.8-2.6,6.5-2.6,11.1c0,2,0.2,3.8,0.5,5.6
			c0.3,1.8,0.8,3.3,1.5,4.8c0.7,1.4,1.6,2.6,2.7,3.4c1.1,0.8,2.4,1.3,3.9,1.3c2.1,0,3.9-0.6,5.5-1.9c1.6-1.2,2.8-2.8,3.6-4.8l1,0.5
			c-2.1,5.2-5.7,7.8-10.7,7.8c-2.2,0-4.1-0.3-5.8-0.9c-1.7-0.6-3-1.4-4-2.4c-1-1-1.9-2.2-2.5-3.6c-0.7-1.4-1.1-2.9-1.3-4.3
			C59.7,25.3,59.6,23.7,59.6,22z"/>
		<path d="M86.4,37.2v-1l3.4-0.2V6.8l-3.4-0.2v-1h12.5v1l-3.4,0.2V36l3.4,0.2v1H86.4z"/>
		<path d="M102.4,21.5c0-3,0.5-5.8,1.6-8.3c1.1-2.5,2.7-4.5,4.8-6.1c2.1-1.5,4.6-2.3,7.3-2.3c4.2,0,7.5,1.5,10.1,4.4
			c2.5,2.9,3.8,6.8,3.8,11.6c0,1.7-0.2,3.4-0.5,5.1c-0.3,1.6-0.9,3.2-1.6,4.7c-0.7,1.5-1.6,2.8-2.7,3.9c-1.1,1.1-2.4,2-3.9,2.6
			s-3.2,1-5,1c-4.3,0-7.7-1.5-10.2-4.5S102.4,26.5,102.4,21.5z M108.3,21c0,2.9,0.3,5.5,0.9,7.9c0.6,2.3,1.5,4.2,2.7,5.7
			c1.2,1.5,2.6,2.2,4.3,2.2c2.5,0,4.4-1.4,5.8-4.3c1.4-2.9,2.1-6.7,2.1-11.5c0-5-0.7-8.7-2.1-11.2c-1.4-2.5-3.3-3.7-5.8-3.7
			c-0.9,0-1.7,0.2-2.4,0.5c-0.8,0.4-1.5,0.9-2.2,1.7c-0.7,0.8-1.3,1.7-1.8,2.9c-0.5,1.1-0.9,2.6-1.2,4.2
			C108.4,17.1,108.3,19,108.3,21z"/>
		<path d="M133.5,37.2v-1l3.4-0.2V6.8l-3.4-0.2v-1h21.8l0.2,9h-0.9c-0.2-1-0.4-1.9-0.6-2.6c-0.2-0.7-0.5-1.4-0.9-2.1
			s-0.8-1.3-1.3-1.7c-0.5-0.4-1.1-0.8-1.9-1c-0.8-0.3-1.7-0.4-2.7-0.4c-1.3,0-2.8,0.1-4.7,0.2v13.2c0.4,0,1.2,0.1,2.4,0.1
			c1.6,0,2.7-0.4,3.3-1.1s1-2.1,1-4.2h1.2v11.9h-1.2c0-2-0.3-3.4-1-4.2c-0.7-0.8-1.8-1.2-3.3-1.2c-1.1,0-1.9,0-2.4,0.1v14.2
			c1.9,0.1,3.8,0.2,5.6,0.2c0.9,0,1.6-0.1,2.3-0.2c0.7-0.1,1.2-0.4,1.7-0.7c0.5-0.3,0.9-0.7,1.2-1.1c0.3-0.4,0.6-0.9,0.9-1.6
			c0.3-0.6,0.5-1.3,0.6-1.9c0.2-0.6,0.3-1.4,0.5-2.3h1l-0.2,9H133.5z"/>
		<path d="M160.3,37.2v-1l3.4-0.2V6.8l-3.4-0.2v-1h11.2c3,0,5.6,0.4,7.7,1.1c2.1,0.8,3.8,1.8,5.1,3.3c1.2,1.4,2.2,3.1,2.7,5
			c0.6,1.9,0.9,4.1,0.9,6.6c0,1.8-0.2,3.5-0.6,5c-0.4,1.5-1,3-1.8,4.3c-0.8,1.3-1.8,2.5-3,3.4c-1.2,0.9-2.7,1.7-4.4,2.2
			c-1.8,0.5-3.7,0.8-5.9,0.8H160.3z M169.4,35.8c0.8,0.1,1.5,0.2,2.2,0.2c1.5,0,2.8-0.2,4-0.7c1.2-0.5,2.2-1.2,2.9-2
			c0.8-0.9,1.4-1.9,2-3.2c0.5-1.2,0.9-2.6,1.1-4.1c0.2-1.5,0.3-3.1,0.3-4.8c0-1.7-0.1-3.2-0.2-4.6c-0.2-1.3-0.5-2.7-0.9-3.9
			c-0.5-1.3-1-2.3-1.8-3.1c-0.7-0.8-1.7-1.5-2.9-2c-1.2-0.5-2.6-0.7-4.3-0.7c-0.8,0-1.6,0.1-2.4,0.2V35.8z"/>
		<path d="M192.2,22.1c0-1.6,0.2-3.1,0.5-4.7c0.3-1.6,0.9-3.1,1.7-4.6c0.8-1.5,1.7-2.9,2.8-4c1.1-1.2,2.5-2.1,4.1-2.8
			c1.7-0.7,3.5-1.1,5.5-1.1c3,0,5.5,0.6,7.4,1.9c2,1.3,2.9,2.8,2.9,4.5c0,0.9-0.3,1.7-0.9,2.4c-0.6,0.7-1.4,1-2.4,1
			c-1,0-1.7-0.3-2.3-0.9c-0.6-0.6-0.9-1.4-0.9-2.3c0-1,0.3-1.8,1-2.4c0.6-0.6,1.4-0.9,2.4-0.9V8.1c-0.3-0.4-1-0.8-2.1-1.3
			s-2.3-0.7-3.8-0.7c-2.1,0-3.9,0.6-5.4,1.9c-1.5,1.3-2.7,3.1-3.5,5.4c-0.8,2.3-1.2,4.9-1.2,7.9c0,1,0,2,0.1,2.9
			c0.1,0.9,0.2,1.9,0.4,3s0.4,2,0.7,2.9c0.3,0.9,0.7,1.7,1.2,2.6c0.5,0.8,1.1,1.5,1.8,2.1c0.7,0.6,1.5,1,2.4,1.4
			c0.9,0.3,2,0.5,3.1,0.5c1.3,0,2.7-0.2,4.1-0.7V24l-3.3-0.2v-1h11.6v1l-3.3,0.2v11.7c-1.2,0.7-2.8,1.3-4.7,1.7
			c-1.9,0.4-3.8,0.6-5.7,0.6C197,38,192.2,32.7,192.2,22.1z"/>
		<path d="M222.9,37.2v-1l3.4-0.2V6.8l-3.4-0.2v-1h21.8l0.2,9H244c-0.2-1-0.4-1.9-0.6-2.6c-0.2-0.7-0.5-1.4-0.9-2.1
			s-0.8-1.3-1.3-1.7c-0.5-0.4-1.1-0.8-1.9-1c-0.8-0.3-1.7-0.4-2.7-0.4c-1.3,0-2.8,0.1-4.7,0.2v13.2c0.4,0,1.2,0.1,2.4,0.1
			c1.6,0,2.7-0.4,3.3-1.1s1-2.1,1-4.2h1.2v11.9h-1.2c0-2-0.3-3.4-1-4.2c-0.7-0.8-1.8-1.2-3.3-1.2c-1.1,0-1.9,0-2.4,0.1v14.2
			c1.9,0.1,3.8,0.2,5.6,0.2c0.9,0,1.6-0.1,2.3-0.2c0.7-0.1,1.2-0.4,1.7-0.7c0.5-0.3,0.9-0.7,1.2-1.1c0.3-0.4,0.6-0.9,0.9-1.6
			c0.3-0.6,0.5-1.3,0.6-1.9c0.2-0.6,0.3-1.4,0.5-2.3h1l-0.2,9H222.9z"/>
	</g>
</g>
</svg>
